<?xml version="1.0" encoding="UTF-8" standalone="no"?>
<!-- Created with Inkscape (http://www.inkscape.org/) -->

<svg
   xmlns:dc="http://purl.org/dc/elements/1.1/"
   xmlns:cc="http://creativecommons.org/ns#"
   xmlns:rdf="http://www.w3.org/1999/02/22-rdf-syntax-ns#"
   xmlns:svg="http://www.w3.org/2000/svg"
   xmlns="http://www.w3.org/2000/svg"
   xmlns:xlink="http://www.w3.org/1999/xlink"
   xmlns:sodipodi="http://sodipodi.sourceforge.net/DTD/sodipodi-0.dtd"
   xmlns:inkscape="http://www.inkscape.org/namespaces/inkscape"
   width="210mm"
   height="297mm"
   viewBox="0 0 744.09448819 1052.3622047"
   id="svg5040"
   version="1.1"
   inkscape:version="0.91 r13725"
   sodipodi:docname="2.svg"
   inkscape:export-filename="/home/winardiaris/Pictures/logo/jakartaEE/a.png"
   inkscape:export-xdpi="300"
   inkscape:export-ydpi="300">
  <defs
     id="defs5042">
    <linearGradient
       inkscape:collect="always"
       id="linearGradient5750">
      <stop
         style="stop-color:#9b0d0d;stop-opacity:1"
         offset="0"
         id="stop5752" />
      <stop
         style="stop-color:#ec2020;stop-opacity:1"
         offset="1"
         id="stop5754" />
    </linearGradient>
    <linearGradient
       id="linearGradient5740"
       inkscape:collect="always">
      <stop
         id="stop5742"
         offset="0"
         style="stop-color:#066460;stop-opacity:1" />
      <stop
         style="stop-color:#0aa09c;stop-opacity:1"
         offset="1"
         id="stop5744" />
    </linearGradient>
    <linearGradient
       inkscape:collect="always"
       id="linearGradient5720">
      <stop
         style="stop-color:#066460;stop-opacity:1"
         offset="0"
         id="stop5722" />
      <stop
         id="stop5728"
         offset="0.56216651"
         style="stop-color:#0aa09c;stop-opacity:0.38039216;" />
      <stop
         style="stop-color:#065d5a;stop-opacity:1"
         offset="1"
         id="stop5724" />
    </linearGradient>
    <linearGradient
       inkscape:collect="always"
       id="linearGradient5710">
      <stop
         style="stop-color:#08827f;stop-opacity:1"
         offset="0"
         id="stop5712" />
      <stop
         style="stop-color:#0dc7c3;stop-opacity:0;"
         offset="1"
         id="stop5714" />
    </linearGradient>
    <linearGradient
       inkscape:collect="always"
       id="linearGradient5688">
      <stop
         style="stop-color:#ec2020;stop-opacity:1;"
         offset="0"
         id="stop5690" />
      <stop
         id="stop5696"
         offset="0.42697105"
         style="stop-color:#ad210f;stop-opacity:1" />
      <stop
         style="stop-color:#ec2020;stop-opacity:1"
         offset="1"
         id="stop5692" />
    </linearGradient>
    <linearGradient
       inkscape:collect="always"
       xlink:href="#linearGradient5688"
       id="linearGradient5694"
       x1="278.52481"
       y1="726.50549"
       x2="247.60533"
       y2="786.10443"
       gradientUnits="userSpaceOnUse" />
    <linearGradient
       inkscape:collect="always"
       xlink:href="#linearGradient5710"
       id="linearGradient5716"
       x1="238.5981"
       y1="702.4668"
       x2="238.14049"
       y2="732.82391"
       gradientUnits="userSpaceOnUse" />
    <linearGradient
       inkscape:collect="always"
       xlink:href="#linearGradient5720"
       id="linearGradient5726"
       x1="251.0981"
       y1="695.32389"
       x2="333.59811"
       y2="695.32391"
       gradientUnits="userSpaceOnUse" />
    <linearGradient
       inkscape:collect="always"
       xlink:href="#linearGradient5740"
       id="linearGradient5738"
       x1="337.59308"
       y1="676.04932"
       x2="326.22925"
       y2="663.40247"
       gradientUnits="userSpaceOnUse" />
    <linearGradient
       inkscape:collect="always"
       xlink:href="#linearGradient5750"
       id="linearGradient5756"
       x1="353.09311"
       y1="696.39532"
       x2="373.8074"
       y2="693.53821"
       gradientUnits="userSpaceOnUse" />
    <filter
       inkscape:collect="always"
       style="color-interpolation-filters:sRGB"
       id="filter5861"
       x="-0.03669758"
       width="1.0733952"
       y="-0.069362973"
       height="1.1387259">
      <feGaussianBlur
         inkscape:collect="always"
         stdDeviation="4.5507032"
         id="feGaussianBlur5863" />
    </filter>
  </defs>
  <sodipodi:namedview
     id="base"
     pagecolor="#ffffff"
     bordercolor="#666666"
     borderopacity="1.0"
     inkscape:pageopacity="1"
     inkscape:pageshadow="2"
     inkscape:zoom="0.25"
     inkscape:cx="-291.32029"
     inkscape:cy="412.27434"
     inkscape:document-units="px"
     inkscape:current-layer="layer1"
     showgrid="false"
     inkscape:window-width="1366"
     inkscape:window-height="716"
     inkscape:window-x="0"
     inkscape:window-y="0"
     inkscape:window-maximized="1" />
  <metadata
     id="metadata5045">
    <rdf:RDF>
      <cc:Work
         rdf:about="">
        <dc:format>image/svg+xml</dc:format>
        <dc:type
           rdf:resource="http://purl.org/dc/dcmitype/StillImage" />
        <dc:title></dc:title>
      </cc:Work>
    </rdf:RDF>
  </metadata>
  <g
     inkscape:label="Layer 1"
     inkscape:groupmode="layer"
     id="layer1">
    <g
       id="g7146"
       transform="translate(2.8835508e-6,1.7529026)"
       inkscape:export-xdpi="300"
       inkscape:export-ydpi="300">
      <rect
         style="opacity:1;fill:#ffffff;fill-opacity:1;stroke:none;stroke-width:0.5;stroke-linecap:square;stroke-linejoin:miter;stroke-miterlimit:4;stroke-dasharray:none;stroke-opacity:1"
         id="rect6575"
         width="441.50269"
         height="267.12698"
         x="151.2959"
         y="211.1118" />
      <g
         transform="translate(-4.5292969e-6,4.4941904)"
         id="g7122">
        <g
           id="g6370"
           transform="translate(73.939543,-120.75253)">
          <path
             style="opacity:1;fill:#ec2020;fill-opacity:1;stroke:none;stroke-width:70;stroke-linecap:square;stroke-linejoin:miter;stroke-miterlimit:4;stroke-dasharray:none;stroke-opacity:1"
             d="m 176.1924,474.66253 a 12.5,12.5 0 0 1 -0.062,1.248 12.5,12.5 0 0 1 -0.1875,1.2344 12.5,12.5 0 0 1 -0.3086,1.2109 12.5,12.5 0 0 1 -0.4297,1.1739 12.5,12.5 0 0 1 -0.543,1.125 12.5,12.5 0 0 1 -0.6523,1.0644 12.5,12.5 0 0 1 -0.7559,0.9961 12.5,12.5 0 0 1 -0.8515,0.9141 12.5,12.5 0 0 1 -0.9395,0.8242 12.5,12.5 0 0 1 -1.0156,0.7265 12.5,12.5 0 0 1 -1.084,0.6231 12.5,12.5 0 0 1 -1.1406,0.5097 12.5,12.5 0 0 1 -1.1856,0.3946 12.5,12.5 0 0 1 -1.2207,0.2734 12.5,12.5 0 0 1 -1.2402,0.1504 12.5,12.5 0 0 1 -0.8828,0.031 12.5,12.5 0 0 1 -1.2481,-0.062 12.5,12.5 0 0 1 -1.2363,-0.1875 12.5,12.5 0 0 1 -1.2109,-0.3086 12.5,12.5 0 0 1 -1.1739,-0.4277 12.5,12.5 0 0 1 -1.125,-0.5449 12.5,12.5 0 0 1 -1.0644,-0.6524 12.5,12.5 0 0 1 -0.9942,-0.7558 12.5,12.5 0 0 1 -0.914,-0.8516 12.5,12.5 0 0 1 -0.8262,-0.9395 12.5,12.5 0 0 1 -0.7266,-1.0156 12.5,12.5 0 0 1 -0.6211,-1.084 12.5,12.5 0 0 1 -0.5097,-1.1406 12.5,12.5 0 0 1 -0.3945,-1.1855 12.5,12.5 0 0 1 -0.2735,-1.2188 12.5,12.5 0 0 1 -0.1289,-1.0605 65,65 0 0 0 64.9473,63.9355 65,65 0 0 0 65,-65 65,65 0 0 0 -6.1875,-27.5 l -29.7949,0 a 40,40 0 0 1 10.9824,27.5 40,40 0 0 1 -40,40 40,40 0 0 1 -40,-40 z"
             id="path4915"
             inkscape:connector-curvature="0" />
          <path
             inkscape:connector-curvature="0"
             id="path4911"
             d="m 216.2378,397.16253 a 65,65 0 0 0 -38.1895,12.5 l 76.3985,0 a 65,65 0 0 0 -38.209,-12.5 z"
             style="opacity:1;fill:#ec2020;fill-opacity:1;stroke:none;stroke-width:70;stroke-linecap:square;stroke-linejoin:miter;stroke-miterlimit:4;stroke-dasharray:none;stroke-opacity:1" />
          <path
             style="opacity:1;fill:#ec2020;fill-opacity:1;stroke:none;stroke-width:70;stroke-linecap:square;stroke-linejoin:miter;stroke-miterlimit:4;stroke-dasharray:none;stroke-opacity:1"
             d="m 151.2451,475.72693 a 12.5,12.5 0 0 0 0.1289,1.0606 12.5,12.5 0 0 0 0.2735,1.2187 12.5,12.5 0 0 0 0.3945,1.1856 12.5,12.5 0 0 0 0.5097,1.1406 12.5,12.5 0 0 0 0.6211,1.084 12.5,12.5 0 0 0 0.7266,1.0156 12.5,12.5 0 0 0 0.8262,0.9394 12.5,12.5 0 0 0 0.914,0.8516 12.5,12.5 0 0 0 0.9942,0.7559 12.5,12.5 0 0 0 1.0644,0.6523 12.5,12.5 0 0 0 1.125,0.5449 12.5,12.5 0 0 0 1.1739,0.4278 12.5,12.5 0 0 0 1.2109,0.3086 12.5,12.5 0 0 0 1.2363,0.1875 12.5,12.5 0 0 0 1.2481,0.062 12.5,12.5 0 0 0 0.8828,-0.031 12.5,12.5 0 0 0 1.2402,-0.1504 12.5,12.5 0 0 0 1.2207,-0.2735 12.5,12.5 0 0 0 1.1856,-0.3945 12.5,12.5 0 0 0 1.1406,-0.5098 12.5,12.5 0 0 0 1.084,-0.623 12.5,12.5 0 0 0 1.0156,-0.7266 12.5,12.5 0 0 0 0.9394,-0.8242 12.5,12.5 0 0 0 0.8516,-0.9141 12.5,12.5 0 0 0 0.7559,-0.996 12.5,12.5 0 0 0 0.6523,-1.0645 12.5,12.5 0 0 0 0.543,-1.125 12.5,12.5 0 0 0 0.4297,-1.1738 12.5,12.5 0 0 0 0.3086,-1.211 12.5,12.5 0 0 0 0.1875,-1.2343 12.5,12.5 0 0 0 0.062,-1.2481 12.5,12.5 0 0 0 -0.031,-0.8848 12.5,12.5 0 0 0 -0.1504,-1.2402 12.5,12.5 0 0 0 -0.2754,-1.2187 12.5,12.5 0 0 0 -0.3926,-1.1856 12.5,12.5 0 0 0 -0.5117,-1.1406 12.5,12.5 0 0 0 -0.6211,-1.084 12.5,12.5 0 0 0 -0.7266,-1.0176 12.5,12.5 0 0 0 -0.8242,-0.9375 12.5,12.5 0 0 0 -0.9141,-0.8515 12.5,12.5 0 0 0 -0.996,-0.7559 12.5,12.5 0 0 0 -1.0645,-0.6543 12.5,12.5 0 0 0 -1.125,-0.543 12.5,12.5 0 0 0 -1.1738,-0.4277 12.5,12.5 0 0 0 -1.211,-0.3105 12.5,12.5 0 0 0 -1.2343,-0.1856 12.5,12.5 0 0 0 -1.2481,-0.062 12.5,12.5 0 0 0 -0.8848,0.031 12.5,12.5 0 0 0 -1.2402,0.1504 12.5,12.5 0 0 0 -1.2187,0.2734 12.5,12.5 0 0 0 -1.1856,0.3946 12.5,12.5 0 0 0 -1.1406,0.5097 12.5,12.5 0 0 0 -1.084,0.6211 12.5,12.5 0 0 0 -1.0176,0.7266 12.5,12.5 0 0 0 -0.9375,0.8262 12.5,12.5 0 0 0 -0.8515,0.914 12.5,12.5 0 0 0 -0.7559,0.9942 12.5,12.5 0 0 0 -0.6543,1.0644 12.5,12.5 0 0 0 -0.543,1.127 12.5,12.5 0 0 0 -0.4277,1.1719 12.5,12.5 0 0 0 -0.3105,1.2109 12.5,12.5 0 0 0 -0.1856,1.2363 12.5,12.5 0 0 0 -0.062,1.2481 65,65 0 0 0 0.053,1.0644 z"
             id="path4913"
             inkscape:connector-curvature="0" />
          <path
             inkscape:connector-curvature="0"
             style="opacity:1;fill:#ec2020;fill-opacity:1;stroke:none;stroke-width:0.5;stroke-linecap:square;stroke-linejoin:miter;stroke-miterlimit:4;stroke-dasharray:none;stroke-opacity:1"
             d="m 415.0222,422.20453 a 40,40 0 0 1 2.3418,3.2422 40,40 0 0 1 2.0059,3.4571 40,40 0 0 1 1.6504,3.6425 40,40 0 0 1 1.2773,3.7891 40,40 0 0 1 0.8945,3.8965 40,40 0 0 1 0.502,3.9668 40,40 0 0 1 0.1133,3.0058 l 25,0 a 65,65 0 0 0 -0.3282,-6.4882 65,65 0 0 0 -0.9765,-6.4239 65,65 0 0 0 -1.6113,-6.2949 65,65 0 0 0 -2.1016,-5.793 l -28.7676,0 z"
             id="path4936" />
          <path
             inkscape:connector-curvature="0"
             style="opacity:1;fill:#ec2020;fill-opacity:1;stroke:none;stroke-width:0.5;stroke-linecap:square;stroke-linejoin:miter;stroke-miterlimit:4;stroke-dasharray:none;stroke-opacity:1"
             d="m 352.6296,422.20453 a 40,40 0 0 0 -1.8027,2.4239 40,40 0 0 0 -2.0937,3.4062 40,40 0 0 0 -1.7461,3.5977 40,40 0 0 0 -1.375,3.7539 40,40 0 0 0 -0.9961,3.873 40,40 0 0 0 -0.6035,3.9532 40,40 0 0 0 -0.2051,3.9921 l 80,0 a 40,40 0 0 0 -0.1133,-3.0058 40,40 0 0 0 -0.502,-3.9668 40,40 0 0 0 -0.8945,-3.8965 40,40 0 0 0 -1.2773,-3.7891 40,40 0 0 0 -1.6504,-3.6425 40,40 0 0 0 -2.0059,-3.4571 40,40 0 0 0 -2.3418,-3.2422 l -62.3926,0 z"
             id="path4938" />
          <path
             inkscape:connector-curvature="0"
             style="opacity:1;fill:#ec2020;fill-opacity:1;stroke:none;stroke-width:70;stroke-linecap:square;stroke-linejoin:miter;stroke-miterlimit:4;stroke-dasharray:none;stroke-opacity:1"
             d="m 441.3972,477.27683 a 12.5,12.5 0 0 0 0.1,-0.2051 12.5,12.5 0 0 0 0.4278,-1.1738 12.5,12.5 0 0 0 0.3105,-1.2109 12.5,12.5 0 0 0 0.1856,-1.2344 12.5,12.5 0 0 0 0.062,-1.2481 12.5,12.5 0 0 0 -0.031,-0.8847 12.5,12.5 0 0 0 -0.1504,-1.2403 12.5,12.5 0 0 0 -0.2734,-1.2187 12.5,12.5 0 0 0 -0.3945,-1.1856 12.5,12.5 0 0 0 -0.5098,-1.1406 12.5,12.5 0 0 0 -0.6211,-1.084 12.5,12.5 0 0 0 -0.7265,-1.0175 12.5,12.5 0 0 0 -0.8262,-0.9375 12.5,12.5 0 0 0 -0.9141,-0.8516 12.5,12.5 0 0 0 -0.9941,-0.7559 12.5,12.5 0 0 0 -1.0645,-0.6543 12.5,12.5 0 0 0 -1.125,-0.5429 12.5,12.5 0 0 0 -1.1738,-0.4278 12.5,12.5 0 0 0 -1.2109,-0.3105 12.5,12.5 0 0 0 -1.2364,-0.1856 12.5,12.5 0 0 0 -1.248,-0.062 12.5,12.5 0 0 0 -0.8828,0.031 12.5,12.5 0 0 0 -1.2402,0.1504 12.5,12.5 0 0 0 -1.2207,0.2735 12.5,12.5 0 0 0 -1.1856,0.3945 12.5,12.5 0 0 0 -1.1406,0.5098 12.5,12.5 0 0 0 -1.084,0.6211 12.5,12.5 0 0 0 -1.0156,0.7265 12.5,12.5 0 0 0 -0.9395,0.8262 12.5,12.5 0 0 0 -0.8515,0.9141 12.5,12.5 0 0 0 -0.7559,0.9941 12.5,12.5 0 0 0 -0.6523,1.0645 12.5,12.5 0 0 0 -0.543,1.1269 12.5,12.5 0 0 0 -0.4297,1.1719 12.5,12.5 0 0 0 -0.3086,1.2109 12.5,12.5 0 0 0 -0.1875,1.2363 12.5,12.5 0 0 0 -0.062,1.2481 12.5,12.5 0 0 0 0.031,0.8828 12.5,12.5 0 0 0 0.1504,1.2422 12.5,12.5 0 0 0 0.2754,1.2187 12.5,12.5 0 0 0 0.3926,1.1856 12.5,12.5 0 0 0 0.5117,1.1406 12.5,12.5 0 0 0 0.6211,1.084 12.5,12.5 0 0 0 0.7265,1.0156 12.5,12.5 0 0 0 0.8243,0.9395 12.5,12.5 0 0 0 0.914,0.8515 12.5,12.5 0 0 0 0.9961,0.7559 12.5,12.5 0 0 0 1.0645,0.6523 12.5,12.5 0 0 0 1.125,0.545 12.5,12.5 0 0 0 1.1738,0.4277 12.5,12.5 0 0 0 1.2109,0.3086 12.5,12.5 0 0 0 1.2344,0.1875 12.5,12.5 0 0 0 1.2481,0.062 12.5,12.5 0 0 0 0.8847,-0.031 12.5,12.5 0 0 0 1.2403,-0.1504 12.5,12.5 0 0 0 1.2187,-0.2734 12.5,12.5 0 0 0 1.1855,-0.3946 12.5,12.5 0 0 0 1.1407,-0.5097 12.5,12.5 0 0 0 1.084,-0.6231 12.5,12.5 0 0 0 1.0175,-0.7265 12.5,12.5 0 0 0 0.9375,-0.8243 12.5,12.5 0 0 0 0.8516,-0.914 12.5,12.5 0 0 0 0.5918,-0.7793 65,65 0 0 0 1.2617,-2.2012 z"
             id="path4942" />
          <path
             inkscape:connector-curvature="0"
             style="opacity:1;fill:#ec2020;fill-opacity:1;stroke:none;stroke-width:70;stroke-linecap:square;stroke-linejoin:miter;stroke-miterlimit:4;stroke-dasharray:none;stroke-opacity:1"
             d="m 318.8074,447.20453 a 65,65 0 0 0 65,65 65,65 0 0 0 56.3281,-32.7265 12.5,12.5 0 0 1 -0.5918,0.7793 12.5,12.5 0 0 1 -0.8516,0.914 12.5,12.5 0 0 1 -0.9375,0.8243 12.5,12.5 0 0 1 -1.0175,0.7265 12.5,12.5 0 0 1 -1.084,0.6231 12.5,12.5 0 0 1 -1.1406,0.5097 12.5,12.5 0 0 1 -1.1856,0.3946 12.5,12.5 0 0 1 -1.2187,0.2734 12.5,12.5 0 0 1 -1.2403,0.1504 12.5,12.5 0 0 1 -0.8847,0.031 12.5,12.5 0 0 1 -1.2481,-0.062 12.5,12.5 0 0 1 -1.2344,-0.1875 12.5,12.5 0 0 1 -1.2109,-0.3086 12.5,12.5 0 0 1 -1.1738,-0.4277 12.5,12.5 0 0 1 -1.125,-0.545 12.5,12.5 0 0 1 -1.0645,-0.6523 12.5,12.5 0 0 1 -0.9961,-0.7559 12.5,12.5 0 0 1 -0.914,-0.8515 12.5,12.5 0 0 1 -0.8243,-0.9395 12.5,12.5 0 0 1 -0.7265,-1.0156 12.5,12.5 0 0 1 -0.6211,-1.084 12.5,12.5 0 0 1 -0.5117,-1.1406 12.5,12.5 0 0 1 -0.3926,-1.1856 12.5,12.5 0 0 1 -0.2754,-1.2187 12.5,12.5 0 0 1 -0.1504,-1.2422 12.5,12.5 0 0 1 -0.031,-0.8828 12.5,12.5 0 0 1 0.062,-1.2481 12.5,12.5 0 0 1 0.1875,-1.2363 12.5,12.5 0 0 1 0.3086,-1.2109 12.5,12.5 0 0 1 0.4297,-1.1719 12.5,12.5 0 0 1 0.3184,-0.6582 c -0.012,-0.017 -0.02,-0.03 -0.031,-0.047 a 40,40 0 0 1 -34.9512,20.5723 40,40 0 0 1 -40,-40 l -25,0 z"
             id="path4944" />
          <path
             id="path4652"
             d="m 322.3129,422.20453 a 40,40 0 0 1 2.3418,3.2422 40,40 0 0 1 2.0059,3.4571 40,40 0 0 1 1.6504,3.6425 40,40 0 0 1 1.2773,3.7891 40,40 0 0 1 0.8945,3.8965 40,40 0 0 1 0.502,3.9668 40,40 0 0 1 0.1133,3.0058 l 25,0 a 65,65 0 0 0 -0.3282,-6.4882 65,65 0 0 0 -0.9765,-6.4239 65,65 0 0 0 -1.6113,-6.2949 65,65 0 0 0 -2.1016,-5.793 l -28.7676,0 z"
             style="opacity:1;fill:#0dc7c3;fill-opacity:1;stroke:none;stroke-width:0.5;stroke-linecap:square;stroke-linejoin:miter;stroke-miterlimit:4;stroke-dasharray:none;stroke-opacity:1"
             inkscape:connector-curvature="0" />
          <path
             id="path4659"
             d="m 259.9203,422.20453 a 40,40 0 0 0 -1.8027,2.4239 40,40 0 0 0 -2.0937,3.4062 40,40 0 0 0 -1.7461,3.5977 40,40 0 0 0 -1.375,3.7539 40,40 0 0 0 -0.9961,3.873 40,40 0 0 0 -0.6035,3.9532 40,40 0 0 0 -0.2051,3.9921 l 80,0 a 40,40 0 0 0 -0.1133,-3.0058 40,40 0 0 0 -0.502,-3.9668 40,40 0 0 0 -0.8945,-3.8965 40,40 0 0 0 -1.2773,-3.7891 40,40 0 0 0 -1.6504,-3.6425 40,40 0 0 0 -2.0059,-3.4571 40,40 0 0 0 -2.3418,-3.2422 l -62.3926,0 z"
             style="opacity:1;fill:#0dc7c3;fill-opacity:1;stroke:none;stroke-width:0.5;stroke-linecap:square;stroke-linejoin:miter;stroke-miterlimit:4;stroke-dasharray:none;stroke-opacity:1"
             inkscape:connector-curvature="0" />
          <path
             id="path4657"
             d="m 231.1645,422.20453 a 65,65 0 0 0 -2.2129,6.1094 65,65 0 0 0 -1.5898,6.2988 65,65 0 0 0 -0.9551,6.4278 65,65 0 0 0 -0.3086,6.164 l 25,0 a 40,40 0 0 1 0.2051,-3.9921 40,40 0 0 1 0.6035,-3.9532 40,40 0 0 1 0.9961,-3.873 40,40 0 0 1 1.375,-3.7539 40,40 0 0 1 1.7461,-3.5977 40,40 0 0 1 2.0937,-3.4062 40,40 0 0 1 1.8027,-2.4239 l -28.7558,0 z"
             style="opacity:1;fill:#0dc7c3;fill-opacity:1;stroke:none;stroke-width:0.5;stroke-linecap:square;stroke-linejoin:miter;stroke-miterlimit:4;stroke-dasharray:none;stroke-opacity:1"
             inkscape:connector-curvature="0" />
          <path
             id="path4665"
             d="m 348.6879,477.27683 a 12.5,12.5 0 0 0 0.1,-0.2051 12.5,12.5 0 0 0 0.4278,-1.1738 12.5,12.5 0 0 0 0.3105,-1.2109 12.5,12.5 0 0 0 0.1856,-1.2344 12.5,12.5 0 0 0 0.062,-1.2481 12.5,12.5 0 0 0 -0.031,-0.8847 12.5,12.5 0 0 0 -0.1503,-1.2403 12.5,12.5 0 0 0 -0.2735,-1.2187 12.5,12.5 0 0 0 -0.3945,-1.1856 12.5,12.5 0 0 0 -0.5098,-1.1406 12.5,12.5 0 0 0 -0.6211,-1.084 12.5,12.5 0 0 0 -0.7265,-1.0175 12.5,12.5 0 0 0 -0.8262,-0.9375 12.5,12.5 0 0 0 -0.9141,-0.8516 12.5,12.5 0 0 0 -0.9941,-0.7559 12.5,12.5 0 0 0 -1.0645,-0.6543 12.5,12.5 0 0 0 -1.125,-0.5429 12.5,12.5 0 0 0 -1.1738,-0.4278 12.5,12.5 0 0 0 -1.2109,-0.3105 12.5,12.5 0 0 0 -1.2364,-0.1856 12.5,12.5 0 0 0 -1.248,-0.062 12.5,12.5 0 0 0 -0.8828,0.031 12.5,12.5 0 0 0 -1.2402,0.1504 12.5,12.5 0 0 0 -1.2207,0.2735 12.5,12.5 0 0 0 -1.1856,0.3945 12.5,12.5 0 0 0 -1.1406,0.5098 12.5,12.5 0 0 0 -1.084,0.6211 12.5,12.5 0 0 0 -1.0156,0.7265 12.5,12.5 0 0 0 -0.9395,0.8262 12.5,12.5 0 0 0 -0.8515,0.9141 12.5,12.5 0 0 0 -0.7559,0.9941 12.5,12.5 0 0 0 -0.6523,1.0645 12.5,12.5 0 0 0 -0.543,1.1269 12.5,12.5 0 0 0 -0.4297,1.1719 12.5,12.5 0 0 0 -0.3086,1.2109 12.5,12.5 0 0 0 -0.1875,1.2363 12.5,12.5 0 0 0 -0.062,1.2481 12.5,12.5 0 0 0 0.031,0.8828 12.5,12.5 0 0 0 0.1504,1.2422 12.5,12.5 0 0 0 0.2754,1.2187 12.5,12.5 0 0 0 0.3926,1.1856 12.5,12.5 0 0 0 0.5117,1.1406 12.5,12.5 0 0 0 0.6211,1.084 12.5,12.5 0 0 0 0.7265,1.0156 12.5,12.5 0 0 0 0.8243,0.9395 12.5,12.5 0 0 0 0.914,0.8515 12.5,12.5 0 0 0 0.9961,0.7559 12.5,12.5 0 0 0 1.0645,0.6523 12.5,12.5 0 0 0 1.125,0.545 12.5,12.5 0 0 0 1.1738,0.4277 12.5,12.5 0 0 0 1.2109,0.3086 12.5,12.5 0 0 0 1.2344,0.1875 12.5,12.5 0 0 0 1.2481,0.062 12.5,12.5 0 0 0 0.8847,-0.031 12.5,12.5 0 0 0 1.2403,-0.1504 12.5,12.5 0 0 0 1.2187,-0.2734 12.5,12.5 0 0 0 1.1855,-0.3946 12.5,12.5 0 0 0 1.1407,-0.5097 12.5,12.5 0 0 0 1.084,-0.6231 12.5,12.5 0 0 0 1.0175,-0.7265 12.5,12.5 0 0 0 0.9375,-0.8243 12.5,12.5 0 0 0 0.8516,-0.914 12.5,12.5 0 0 0 0.5918,-0.7793 65,65 0 0 0 1.2617,-2.2012 z"
             style="opacity:1;fill:#0dc7c3;fill-opacity:1;stroke:none;stroke-width:70;stroke-linecap:square;stroke-linejoin:miter;stroke-miterlimit:4;stroke-dasharray:none;stroke-opacity:1"
             inkscape:connector-curvature="0" />
          <path
             id="path4645"
             d="m 226.0981,447.20453 a 65,65 0 0 0 65,65 65,65 0 0 0 56.3281,-32.7265 12.5,12.5 0 0 1 -0.5918,0.7793 12.5,12.5 0 0 1 -0.8516,0.914 12.5,12.5 0 0 1 -0.9375,0.8243 12.5,12.5 0 0 1 -1.0175,0.7265 12.5,12.5 0 0 1 -1.084,0.6231 12.5,12.5 0 0 1 -1.1406,0.5097 12.5,12.5 0 0 1 -1.1856,0.3946 12.5,12.5 0 0 1 -1.2187,0.2734 12.5,12.5 0 0 1 -1.2403,0.1504 12.5,12.5 0 0 1 -0.8847,0.031 12.5,12.5 0 0 1 -1.2481,-0.062 12.5,12.5 0 0 1 -1.2344,-0.1875 12.5,12.5 0 0 1 -1.2109,-0.3086 12.5,12.5 0 0 1 -1.1738,-0.4277 12.5,12.5 0 0 1 -1.125,-0.545 12.5,12.5 0 0 1 -1.0645,-0.6523 12.5,12.5 0 0 1 -0.9961,-0.7559 12.5,12.5 0 0 1 -0.914,-0.8515 12.5,12.5 0 0 1 -0.8243,-0.9395 12.5,12.5 0 0 1 -0.7265,-1.0156 12.5,12.5 0 0 1 -0.6211,-1.084 12.5,12.5 0 0 1 -0.5117,-1.1406 12.5,12.5 0 0 1 -0.3926,-1.1856 12.5,12.5 0 0 1 -0.2754,-1.2187 12.5,12.5 0 0 1 -0.1504,-1.2422 12.5,12.5 0 0 1 -0.031,-0.8828 12.5,12.5 0 0 1 0.062,-1.2481 12.5,12.5 0 0 1 0.1875,-1.2363 12.5,12.5 0 0 1 0.3086,-1.2109 12.5,12.5 0 0 1 0.4297,-1.1719 12.5,12.5 0 0 1 0.3184,-0.6582 c -0.012,-0.017 -0.02,-0.03 -0.031,-0.047 a 40,40 0 0 1 -34.9512,20.5723 40,40 0 0 1 -40,-40 l -25,0 z"
             style="opacity:1;fill:#0dc7c3;fill-opacity:1;stroke:none;stroke-width:70;stroke-linecap:square;stroke-linejoin:miter;stroke-miterlimit:4;stroke-dasharray:none;stroke-opacity:1"
             inkscape:connector-curvature="0" />
          <path
             id="path4634"
             d="m 291.0981,382.20453 a 65,65 0 0 0 -59.9336,40 l 28.7558,0 a 40,40 0 0 1 31.1778,-15 40,40 0 0 1 31.2148,15 l 28.7676,0 a 65,65 0 0 0 -59.9824,-40 z"
             style="opacity:1;fill:#0dc7c3;fill-opacity:1;stroke:none;stroke-width:70;stroke-linecap:square;stroke-linejoin:miter;stroke-miterlimit:4;stroke-dasharray:none;stroke-opacity:1"
             inkscape:connector-curvature="0" />
          <path
             style="opacity:1;fill:#ec2020;fill-opacity:1;stroke:none;stroke-width:0.5;stroke-linecap:square;stroke-linejoin:miter;stroke-miterlimit:4;stroke-dasharray:none;stroke-opacity:1"
             d="m 177.9834,422.16253 a 65,65 0 0 0 -3.666,2.7851 65,65 0 0 0 -4.7539,4.4297 65,65 0 0 0 -4.2872,4.8809 65,65 0 0 0 -3.7792,5.2851 65,65 0 0 0 -3.2325,5.6348 65,65 0 0 0 -0.8886,1.9844 l 29.8359,0 57.9981,0 29.7949,0 a 65,65 0 0 0 -1.7696,-3.6621 65,65 0 0 0 -3.3964,-5.5391 65,65 0 0 0 -3.9317,-5.1738 65,65 0 0 0 -4.4297,-4.7539 65,65 0 0 0 -4.8808,-4.2872 65,65 0 0 0 -2.2149,-1.5839 l -76.3984,0 z"
             id="path4917"
             inkscape:connector-curvature="0" />
          <path
             inkscape:connector-curvature="0"
             style="opacity:1;fill:#ec2020;fill-opacity:1;stroke:none;stroke-width:70;stroke-linecap:square;stroke-linejoin:miter;stroke-miterlimit:4;stroke-dasharray:none;stroke-opacity:1"
             d="m 383.8074,382.20453 a 65,65 0 0 0 -59.9336,40 l 28.7558,0 a 40,40 0 0 1 31.1778,-15 40,40 0 0 1 31.2148,15 l 28.7676,0 a 65,65 0 0 0 -59.9824,-40 z"
             id="path4946" />
          <path
             inkscape:connector-curvature="0"
             style="opacity:1;fill:#ec2020;fill-opacity:1;stroke:none;stroke-width:0.5;stroke-linecap:square;stroke-linejoin:miter;stroke-miterlimit:4;stroke-dasharray:none;stroke-opacity:1"
             d="m 323.8738,422.20453 a 65,65 0 0 0 -2.2129,6.1094 65,65 0 0 0 -1.5898,6.2988 65,65 0 0 0 -0.9551,6.4278 65,65 0 0 0 -0.3086,6.164 l 25,0 a 40,40 0 0 1 0.2051,-3.9921 40,40 0 0 1 0.6035,-3.9532 40,40 0 0 1 0.9961,-3.873 40,40 0 0 1 1.375,-3.7539 40,40 0 0 1 1.7461,-3.5977 40,40 0 0 1 2.0937,-3.4062 40,40 0 0 1 1.8027,-2.4239 l -28.7558,0 z"
             id="path4940" />
          <g
             id="g6364"
             transform="translate(-14.534514,-260.55808)"
             style="stroke:#ffffff">
            <path
               inkscape:connector-curvature="0"
               id="path6366"
               d="m 155.05842,682.64637 315.16759,0"
               style="fill:none;fill-rule:evenodd;stroke:#ffffff;stroke-width:1px;stroke-linecap:butt;stroke-linejoin:miter;stroke-opacity:1" />
            <path
               style="fill:none;fill-rule:evenodd;stroke:#ffffff;stroke-width:1px;stroke-linecap:butt;stroke-linejoin:miter;stroke-opacity:1"
               d="m 155.05842,707.60431 315.16759,0"
               id="path6368"
               inkscape:connector-curvature="0" />
          </g>
        </g>
        <text
           xml:space="preserve"
           style="font-style:normal;font-weight:normal;font-size:40px;line-height:125%;font-family:sans-serif;letter-spacing:0px;word-spacing:0px;fill:#000000;fill-opacity:1;stroke:none;stroke-width:1px;stroke-linecap:butt;stroke-linejoin:miter;stroke-opacity:1"
           x="404.86053"
           y="413.74051"
           id="text7065"
           sodipodi:linespacing="125%"><tspan
             sodipodi:role="line"
             id="tspan7067"
             x="404.86053"
             y="413.74051"
             style="font-style:normal;font-variant:normal;font-weight:normal;font-stretch:normal;font-size:27.5px;font-family:'Open Sans';-inkscape-font-specification:'Open Sans'">Jakarta EE</tspan></text>
      </g>
    </g>
    <g
       id="g7172"
       transform="translate(2.8835508e-6,1.7529026)"
       inkscape:export-xdpi="300"
       inkscape:export-ydpi="300">
      <rect
         y="570.61761"
         x="151.2959"
         height="267.12698"
         width="441.50269"
         id="rect6515"
         style="opacity:1;fill:#ffffff;fill-opacity:1;stroke:none;stroke-width:0.5;stroke-linecap:square;stroke-linejoin:miter;stroke-miterlimit:4;stroke-dasharray:none;stroke-opacity:1" />
      <g
         inkscape:export-ydpi="300.16656"
         inkscape:export-xdpi="300.16656"
         transform="translate(73.939543,-21.37162)"
         id="g6391">
        <g
           id="g6340"
           transform="translate(-1.89228,0)">
          <path
             inkscape:connector-curvature="0"
             id="path5758"
             d="m 383.80664,646.82422 a 65,65 0 0 0 -46.35937,19.5293 65,65 0 0 0 -46.34961,-19.51758 65,65 0 0 0 -47.66797,20.9707 65,65 0 0 0 -27.19141,-6.02539 65,65 0 0 0 -38.18945,12.5 l 60.16211,0 a 65,65 0 0 0 -5.00586,8.12891 65,65 0 0 0 -2.01563,4.37109 l -53.20507,0 a 65,65 0 0 0 -3.66602,2.78516 65,65 0 0 0 -4.75391,4.42968 65,65 0 0 0 -4.28906,4.88086 65,65 0 0 0 -3.77734,5.28516 65,65 0 0 0 -3.23438,5.63477 65,65 0 0 0 -0.88672,1.98437 l 29.83399,0 38.88867,0 a 65,65 0 0 0 -0.002,0.043 65,65 0 0 0 23.28125,49.76172 40,40 0 0 1 -33.18555,17.69531 40,40 0 0 1 -40,-40 12.5,12.5 0 0 1 -0.006,0.12109 12.5,12.5 0 0 0 -0.0273,-0.7539 12.5,12.5 0 0 0 -0.15039,-1.24024 12.5,12.5 0 0 0 -0.27539,-1.21679 12.5,12.5 0 0 0 -0.39258,-1.1875 12.5,12.5 0 0 0 -0.51172,-1.14063 12.5,12.5 0 0 0 -0.6211,-1.08398 12.5,12.5 0 0 0 -0.72656,-1.01758 12.5,12.5 0 0 0 -0.82422,-0.9375 12.5,12.5 0 0 0 -0.91406,-0.85156 12.5,12.5 0 0 0 -0.99609,-0.75586 12.5,12.5 0 0 0 -1.06446,-0.6543 12.5,12.5 0 0 0 -1.125,-0.54297 12.5,12.5 0 0 0 -1.17382,-0.42773 12.5,12.5 0 0 0 -1.21094,-0.3086 12.5,12.5 0 0 0 -1.23438,-0.1875 12.5,12.5 0 0 0 -1.24804,-0.0605 12.5,12.5 0 0 0 -0.88477,0.0312 12.5,12.5 0 0 0 -1.24023,0.15039 12.5,12.5 0 0 0 -1.21875,0.27343 12.5,12.5 0 0 0 -1.18555,0.39454 12.5,12.5 0 0 0 -1.14063,0.50976 12.5,12.5 0 0 0 -1.08398,0.62109 12.5,12.5 0 0 0 -1.01758,0.72657 12.5,12.5 0 0 0 -0.9375,0.82617 12.5,12.5 0 0 0 -0.85156,0.91406 12.5,12.5 0 0 0 -0.75586,0.99414 12.5,12.5 0 0 0 -0.6543,1.06446 12.5,12.5 0 0 0 -0.54297,1.12695 12.5,12.5 0 0 0 -0.42773,1.17187 12.5,12.5 0 0 0 -0.31055,1.21094 12.5,12.5 0 0 0 -0.18554,1.23633 12.5,12.5 0 0 0 -0.0605,1.24805 65,65 0 0 0 0.0527,1.06445 l -0.002,0 a 12.5,12.5 0 0 0 0.041,0.33984 65,65 0 0 0 64.9082,63.3418 65,65 0 0 0 55.12109,-30.62305 65,65 0 0 0 19.78321,3.16602 65,65 0 0 0 46.33789,-19.53711 65,65 0 0 0 46.37109,19.53711 65,65 0 0 0 56.32031,-32.71484 12.5,12.5 0 0 0 0.01,-0.0117 65,65 0 0 0 1.26172,-2.20118 l -0.002,0 a 12.5,12.5 0 0 0 0.10157,-0.20507 12.5,12.5 0 0 0 0.42773,-1.17383 12.5,12.5 0 0 0 0.31055,-1.21094 12.5,12.5 0 0 0 0.18555,-1.23437 12.5,12.5 0 0 0 0.0605,-1.24805 12.5,12.5 0 0 0 -0.0312,-0.88477 12.5,12.5 0 0 0 -0.15039,-1.24023 12.5,12.5 0 0 0 -0.27344,-1.21875 12.5,12.5 0 0 0 -0.39257,-1.18555 12.5,12.5 0 0 0 -0.51172,-1.14062 12.5,12.5 0 0 0 -0.6211,-1.08399 12.5,12.5 0 0 0 -0.72461,-1.01758 12.5,12.5 0 0 0 -0.82617,-0.9375 12.5,12.5 0 0 0 -0.91601,-0.85156 12.5,12.5 0 0 0 -0.99219,-0.75586 12.5,12.5 0 0 0 -1.06641,-0.65429 12.5,12.5 0 0 0 -1.125,-0.54297 12.5,12.5 0 0 0 -1.17383,-0.42774 12.5,12.5 0 0 0 -1.20898,-0.31054 12.5,12.5 0 0 0 -1.23828,-0.18555 12.5,12.5 0 0 0 -1.24609,-0.0625 12.5,12.5 0 0 0 -0.88282,0.0312 12.5,12.5 0 0 0 -1.24023,0.15039 12.5,12.5 0 0 0 -1.22071,0.27344 12.5,12.5 0 0 0 -1.1875,0.39453 12.5,12.5 0 0 0 -1.13867,0.50976 12.5,12.5 0 0 0 -1.08398,0.6211 12.5,12.5 0 0 0 -1.01563,0.72656 12.5,12.5 0 0 0 -0.9414,0.82617 12.5,12.5 0 0 0 -0.84961,0.91406 12.5,12.5 0 0 0 -0.75586,0.99414 12.5,12.5 0 0 0 -0.65235,1.06446 12.5,12.5 0 0 0 -0.22656,0.46875 c -0.012,-0.017 -0.0203,-0.0299 -0.0312,-0.0469 a 40,40 0 0 1 -34.95117,20.57227 40,40 0 0 1 -40,-40 l 12.29102,0 67.70898,0 25,0 a 65,65 0 0 0 -0.32812,-6.48828 65,65 0 0 0 -0.97657,-6.42383 65,65 0 0 0 -1.61133,-6.29492 65,65 0 0 0 -2.10156,-5.79297 65,65 0 0 0 -59.98242,-40 z m 0,25 a 40,40 0 0 1 31.21484,15 l -62.39257,0 a 40,40 0 0 1 31.17773,-15 z m -92.70898,0.0117 a 40,40 0 0 1 28.6914,12.13867 40,40 0 0 1 2.51367,2.84961 l -62.37304,0 a 40,40 0 0 1 31.16797,-14.98828 z m -16.07227,39.98828 43.78125,0 a 65,65 0 0 0 4.51367,23.61719 65,65 0 0 0 0,0.002 40,40 0 0 1 -32.22265,16.38086 40,40 0 0 1 -10.84375,-1.53711 65,65 0 0 0 0.93945,-11.00586 65,65 0 0 0 -0.34375,-6.48828 65,65 0 0 0 -5.82422,-20.96875 z m -22.14062,11.6875 a 40,40 0 0 1 1.50195,4.08203 40,40 0 0 1 -0.57031,-1.27539 40,40 0 0 1 -0.93164,-2.80664 z m 165.58593,8.44531 a 12.5,12.5 0 0 1 0.002,0 12.5,12.5 0 0 0 -0.42969,1.17188 12.5,12.5 0 0 0 -0.30859,1.21093 12.5,12.5 0 0 0 -0.1875,1.23633 12.5,12.5 0 0 0 -0.0625,1.24805 12.5,12.5 0 0 0 0.0312,0.88281 12.5,12.5 0 0 0 0.14844,1.24024 12.5,12.5 0 0 1 -0.15039,-1.24024 12.5,12.5 0 0 1 -0.0293,-0.88281 12.5,12.5 0 0 1 0.0605,-1.24805 12.5,12.5 0 0 1 0.1875,-1.23633 12.5,12.5 0 0 1 0.3086,-1.21093 12.5,12.5 0 0 1 0.42968,-1.17188 z m -0.80664,6.99219 a 12.5,12.5 0 0 0 0.002,0 12.5,12.5 0 0 0 0.27539,1.21875 12.5,12.5 0 0 0 0.39257,1.18555 12.5,12.5 0 0 1 -0.002,0 12.5,12.5 0 0 1 -0.39258,-1.18555 12.5,12.5 0 0 1 -0.27539,-1.21875 z m 1.17969,3.54492 a 12.5,12.5 0 0 0 0.002,0 12.5,12.5 0 0 0 0.6211,1.08398 12.5,12.5 0 0 0 0.72656,1.01563 12.5,12.5 0 0 0 0.82422,0.93945 12.5,12.5 0 0 1 -0.002,0 12.5,12.5 0 0 1 -0.82421,-0.93945 12.5,12.5 0 0 1 -0.72657,-1.01563 12.5,12.5 0 0 1 -0.62109,-1.08398 z"
             style="opacity:0.40200004;fill:#000000;fill-opacity:1;stroke:none;stroke-width:70;stroke-linecap:square;stroke-linejoin:miter;stroke-miterlimit:4;stroke-dasharray:none;stroke-opacity:1;filter:url(#filter5861)" />
          <path
             inkscape:connector-curvature="0"
             id="path5654"
             d="m 176.1924,735.28189 a 12.5,12.5 0 0 1 -0.062,1.248 12.5,12.5 0 0 1 -0.1875,1.2344 12.5,12.5 0 0 1 -0.3086,1.2109 12.5,12.5 0 0 1 -0.4297,1.1739 12.5,12.5 0 0 1 -0.543,1.125 12.5,12.5 0 0 1 -0.6523,1.0644 12.5,12.5 0 0 1 -0.7559,0.9961 12.5,12.5 0 0 1 -0.8515,0.9141 12.5,12.5 0 0 1 -0.9395,0.8242 12.5,12.5 0 0 1 -1.0156,0.7265 12.5,12.5 0 0 1 -1.084,0.6231 12.5,12.5 0 0 1 -1.1406,0.5097 12.5,12.5 0 0 1 -1.1856,0.3946 12.5,12.5 0 0 1 -1.2207,0.2734 12.5,12.5 0 0 1 -1.2402,0.1504 12.5,12.5 0 0 1 -0.8828,0.031 12.5,12.5 0 0 1 -1.2481,-0.062 12.5,12.5 0 0 1 -1.2363,-0.1875 12.5,12.5 0 0 1 -1.2109,-0.3086 12.5,12.5 0 0 1 -1.1739,-0.4277 12.5,12.5 0 0 1 -1.125,-0.5449 12.5,12.5 0 0 1 -1.0644,-0.6524 12.5,12.5 0 0 1 -0.9942,-0.7558 12.5,12.5 0 0 1 -0.914,-0.8516 12.5,12.5 0 0 1 -0.8262,-0.9395 12.5,12.5 0 0 1 -0.7266,-1.0156 12.5,12.5 0 0 1 -0.6211,-1.084 12.5,12.5 0 0 1 -0.5097,-1.1406 12.5,12.5 0 0 1 -0.3945,-1.1855 12.5,12.5 0 0 1 -0.2735,-1.2188 12.5,12.5 0 0 1 -0.1289,-1.0605 65,65 0 0 0 64.9473,63.9355 65,65 0 0 0 65,-65 65,65 0 0 0 -6.1875,-27.5 l -29.7949,0 a 40,40 0 0 1 10.9824,27.5 40,40 0 0 1 -40,40 40,40 0 0 1 -40,-40 z"
             style="opacity:1;fill:#ec2020;fill-opacity:1;stroke:none;stroke-width:70;stroke-linecap:square;stroke-linejoin:miter;stroke-miterlimit:4;stroke-dasharray:none;stroke-opacity:1" />
          <path
             style="opacity:1;fill:#ec2020;fill-opacity:1;stroke:none;stroke-width:70;stroke-linecap:square;stroke-linejoin:miter;stroke-miterlimit:4;stroke-dasharray:none;stroke-opacity:1"
             d="m 216.2378,657.78189 a 65,65 0 0 0 -38.1895,12.5 l 76.3985,0 a 65,65 0 0 0 -38.209,-12.5 z"
             id="path5656"
             inkscape:connector-curvature="0" />
          <path
             inkscape:connector-curvature="0"
             id="path5658"
             d="m 151.2451,736.59883 a 12.5,12.5 0 0 0 0.1289,1.0606 12.5,12.5 0 0 0 0.2735,1.2187 12.5,12.5 0 0 0 0.3945,1.1856 12.5,12.5 0 0 0 0.5097,1.1406 12.5,12.5 0 0 0 0.6211,1.084 12.5,12.5 0 0 0 0.7266,1.0156 12.5,12.5 0 0 0 0.8262,0.9394 12.5,12.5 0 0 0 0.914,0.8516 12.5,12.5 0 0 0 0.9942,0.7559 12.5,12.5 0 0 0 1.0644,0.6523 12.5,12.5 0 0 0 1.125,0.5449 12.5,12.5 0 0 0 1.1739,0.4278 12.5,12.5 0 0 0 1.2109,0.3086 12.5,12.5 0 0 0 1.2363,0.1875 12.5,12.5 0 0 0 1.2481,0.062 12.5,12.5 0 0 0 0.8828,-0.031 12.5,12.5 0 0 0 1.2402,-0.1504 12.5,12.5 0 0 0 1.2207,-0.2735 12.5,12.5 0 0 0 1.1856,-0.3945 12.5,12.5 0 0 0 1.1406,-0.5098 12.5,12.5 0 0 0 1.084,-0.623 12.5,12.5 0 0 0 1.0156,-0.7266 12.5,12.5 0 0 0 0.9394,-0.8242 12.5,12.5 0 0 0 0.8516,-0.9141 12.5,12.5 0 0 0 0.7559,-0.996 12.5,12.5 0 0 0 0.6523,-1.0645 12.5,12.5 0 0 0 0.543,-1.125 12.5,12.5 0 0 0 0.4297,-1.1738 12.5,12.5 0 0 0 0.3086,-1.211 12.5,12.5 0 0 0 0.1875,-1.2343 12.5,12.5 0 0 0 0.062,-1.2481 12.5,12.5 0 0 0 -0.031,-0.8848 12.5,12.5 0 0 0 -0.1504,-1.2402 12.5,12.5 0 0 0 -0.2754,-1.2187 12.5,12.5 0 0 0 -0.3926,-1.1856 12.5,12.5 0 0 0 -0.5117,-1.1406 12.5,12.5 0 0 0 -0.6211,-1.084 12.5,12.5 0 0 0 -0.7266,-1.0176 12.5,12.5 0 0 0 -0.8242,-0.9375 12.5,12.5 0 0 0 -0.9141,-0.8515 12.5,12.5 0 0 0 -0.996,-0.7559 12.5,12.5 0 0 0 -1.0645,-0.6543 12.5,12.5 0 0 0 -1.125,-0.543 12.5,12.5 0 0 0 -1.1738,-0.4277 12.5,12.5 0 0 0 -1.211,-0.3105 12.5,12.5 0 0 0 -1.2343,-0.1856 12.5,12.5 0 0 0 -1.2481,-0.062 12.5,12.5 0 0 0 -0.8848,0.031 12.5,12.5 0 0 0 -1.2402,0.1504 12.5,12.5 0 0 0 -1.2187,0.2734 12.5,12.5 0 0 0 -1.1856,0.3946 12.5,12.5 0 0 0 -1.1406,0.5097 12.5,12.5 0 0 0 -1.084,0.6211 12.5,12.5 0 0 0 -1.0176,0.7266 12.5,12.5 0 0 0 -0.9375,0.8262 12.5,12.5 0 0 0 -0.8515,0.914 12.5,12.5 0 0 0 -0.7559,0.9942 12.5,12.5 0 0 0 -0.6543,1.0644 12.5,12.5 0 0 0 -0.543,1.127 12.5,12.5 0 0 0 -0.4277,1.1719 12.5,12.5 0 0 0 -0.3105,1.2109 12.5,12.5 0 0 0 -0.1856,1.2363 12.5,12.5 0 0 0 -0.062,1.2481 65,65 0 0 0 0.053,1.0644 z"
             style="opacity:1;fill:#ec2020;fill-opacity:1;stroke:none;stroke-width:70;stroke-linecap:square;stroke-linejoin:miter;stroke-miterlimit:4;stroke-dasharray:none;stroke-opacity:1" />
          <path
             id="path5660"
             d="m 415.0222,682.82389 a 40,40 0 0 1 2.3418,3.2422 40,40 0 0 1 2.0059,3.4571 40,40 0 0 1 1.6504,3.6425 40,40 0 0 1 1.2773,3.7891 40,40 0 0 1 0.8945,3.8965 40,40 0 0 1 0.502,3.9668 40,40 0 0 1 0.1133,3.0058 l 25,0 a 65,65 0 0 0 -0.3282,-6.4882 65,65 0 0 0 -0.9765,-6.4239 65,65 0 0 0 -1.6113,-6.2949 65,65 0 0 0 -2.1016,-5.793 l -28.7676,0 z"
             style="opacity:1;fill:#ec2020;fill-opacity:1;stroke:none;stroke-width:0.5;stroke-linecap:square;stroke-linejoin:miter;stroke-miterlimit:4;stroke-dasharray:none;stroke-opacity:1"
             inkscape:connector-curvature="0" />
          <path
             id="path5662"
             d="m 352.6296,682.82389 a 40,40 0 0 0 -1.8027,2.4239 40,40 0 0 0 -2.0937,3.4062 40,40 0 0 0 -1.7461,3.5977 40,40 0 0 0 -1.375,3.7539 40,40 0 0 0 -0.9961,3.873 40,40 0 0 0 -0.6035,3.9532 40,40 0 0 0 -0.2051,3.9921 l 80,0 a 40,40 0 0 0 -0.1133,-3.0058 40,40 0 0 0 -0.502,-3.9668 40,40 0 0 0 -0.8945,-3.8965 40,40 0 0 0 -1.2773,-3.7891 40,40 0 0 0 -1.6504,-3.6425 40,40 0 0 0 -2.0059,-3.4571 40,40 0 0 0 -2.3418,-3.2422 l -62.3926,0 z"
             style="opacity:1;fill:#ec2020;fill-opacity:1;stroke:none;stroke-width:0.5;stroke-linecap:square;stroke-linejoin:miter;stroke-miterlimit:4;stroke-dasharray:none;stroke-opacity:1"
             inkscape:connector-curvature="0" />
          <path
             id="path5664"
             d="m 441.3972,737.89619 a 12.5,12.5 0 0 0 0.1,-0.2051 12.5,12.5 0 0 0 0.4278,-1.1738 12.5,12.5 0 0 0 0.3105,-1.2109 12.5,12.5 0 0 0 0.1856,-1.2344 12.5,12.5 0 0 0 0.062,-1.2481 12.5,12.5 0 0 0 -0.031,-0.8847 12.5,12.5 0 0 0 -0.1504,-1.2403 12.5,12.5 0 0 0 -0.2734,-1.2187 12.5,12.5 0 0 0 -0.3945,-1.1856 12.5,12.5 0 0 0 -0.5098,-1.1406 12.5,12.5 0 0 0 -0.6211,-1.084 12.5,12.5 0 0 0 -0.7265,-1.0175 12.5,12.5 0 0 0 -0.8262,-0.9375 12.5,12.5 0 0 0 -0.9141,-0.8516 12.5,12.5 0 0 0 -0.9941,-0.7559 12.5,12.5 0 0 0 -1.0645,-0.6543 12.5,12.5 0 0 0 -1.125,-0.5429 12.5,12.5 0 0 0 -1.1738,-0.4278 12.5,12.5 0 0 0 -1.2109,-0.3105 12.5,12.5 0 0 0 -1.2364,-0.1856 12.5,12.5 0 0 0 -1.248,-0.062 12.5,12.5 0 0 0 -0.8828,0.031 12.5,12.5 0 0 0 -1.2402,0.1504 12.5,12.5 0 0 0 -1.2207,0.2735 12.5,12.5 0 0 0 -1.1856,0.3945 12.5,12.5 0 0 0 -1.1406,0.5098 12.5,12.5 0 0 0 -1.084,0.6211 12.5,12.5 0 0 0 -1.0156,0.7265 12.5,12.5 0 0 0 -0.9395,0.8262 12.5,12.5 0 0 0 -0.8515,0.9141 12.5,12.5 0 0 0 -0.7559,0.9941 12.5,12.5 0 0 0 -0.6523,1.0645 12.5,12.5 0 0 0 -0.543,1.1269 12.5,12.5 0 0 0 -0.4297,1.1719 12.5,12.5 0 0 0 -0.3086,1.2109 12.5,12.5 0 0 0 -0.1875,1.2363 12.5,12.5 0 0 0 -0.062,1.2481 12.5,12.5 0 0 0 0.031,0.8828 12.5,12.5 0 0 0 0.1504,1.2422 12.5,12.5 0 0 0 0.2754,1.2187 12.5,12.5 0 0 0 0.3926,1.1856 12.5,12.5 0 0 0 0.5117,1.1406 12.5,12.5 0 0 0 0.6211,1.084 12.5,12.5 0 0 0 0.7265,1.0156 12.5,12.5 0 0 0 0.8243,0.9395 12.5,12.5 0 0 0 0.914,0.8515 12.5,12.5 0 0 0 0.9961,0.7559 12.5,12.5 0 0 0 1.0645,0.6523 12.5,12.5 0 0 0 1.125,0.545 12.5,12.5 0 0 0 1.1738,0.4277 12.5,12.5 0 0 0 1.2109,0.3086 12.5,12.5 0 0 0 1.2344,0.1875 12.5,12.5 0 0 0 1.2481,0.062 12.5,12.5 0 0 0 0.8847,-0.031 12.5,12.5 0 0 0 1.2403,-0.1504 12.5,12.5 0 0 0 1.2187,-0.2734 12.5,12.5 0 0 0 1.1855,-0.3946 12.5,12.5 0 0 0 1.1407,-0.5097 12.5,12.5 0 0 0 1.084,-0.6231 12.5,12.5 0 0 0 1.0175,-0.7265 12.5,12.5 0 0 0 0.9375,-0.8243 12.5,12.5 0 0 0 0.8516,-0.914 12.5,12.5 0 0 0 0.5918,-0.7793 65,65 0 0 0 1.2617,-2.2012 z"
             style="opacity:1;fill:#ec2020;fill-opacity:1;stroke:none;stroke-width:70;stroke-linecap:square;stroke-linejoin:miter;stroke-miterlimit:4;stroke-dasharray:none;stroke-opacity:1"
             inkscape:connector-curvature="0" />
          <path
             id="path5666"
             d="m 318.8074,707.82389 a 65,65 0 0 0 65,65 65,65 0 0 0 56.3281,-32.7265 12.5,12.5 0 0 1 -0.5918,0.7793 12.5,12.5 0 0 1 -0.8516,0.914 12.5,12.5 0 0 1 -0.9375,0.8243 12.5,12.5 0 0 1 -1.0175,0.7265 12.5,12.5 0 0 1 -1.084,0.6231 12.5,12.5 0 0 1 -1.1406,0.5097 12.5,12.5 0 0 1 -1.1856,0.3946 12.5,12.5 0 0 1 -1.2187,0.2734 12.5,12.5 0 0 1 -1.2403,0.1504 12.5,12.5 0 0 1 -0.8847,0.031 12.5,12.5 0 0 1 -1.2481,-0.062 12.5,12.5 0 0 1 -1.2344,-0.1875 12.5,12.5 0 0 1 -1.2109,-0.3086 12.5,12.5 0 0 1 -1.1738,-0.4277 12.5,12.5 0 0 1 -1.125,-0.545 12.5,12.5 0 0 1 -1.0645,-0.6523 12.5,12.5 0 0 1 -0.9961,-0.7559 12.5,12.5 0 0 1 -0.914,-0.8515 12.5,12.5 0 0 1 -0.8243,-0.9395 12.5,12.5 0 0 1 -0.7265,-1.0156 12.5,12.5 0 0 1 -0.6211,-1.084 12.5,12.5 0 0 1 -0.5117,-1.1406 12.5,12.5 0 0 1 -0.3926,-1.1856 12.5,12.5 0 0 1 -0.2754,-1.2187 12.5,12.5 0 0 1 -0.1504,-1.2422 12.5,12.5 0 0 1 -0.031,-0.8828 12.5,12.5 0 0 1 0.062,-1.2481 12.5,12.5 0 0 1 0.1875,-1.2363 12.5,12.5 0 0 1 0.3086,-1.2109 12.5,12.5 0 0 1 0.4297,-1.1719 12.5,12.5 0 0 1 0.3184,-0.6582 c -0.012,-0.017 -0.02,-0.03 -0.031,-0.047 a 40,40 0 0 1 -34.9512,20.5723 40,40 0 0 1 -40,-40 l -25,0 z"
             style="opacity:1;fill:#ec2020;fill-opacity:1;stroke:none;stroke-width:70;stroke-linecap:square;stroke-linejoin:miter;stroke-miterlimit:4;stroke-dasharray:none;stroke-opacity:1"
             inkscape:connector-curvature="0" />
          <path
             inkscape:connector-curvature="0"
             style="opacity:1;fill:url(#linearGradient5756);fill-opacity:1;stroke:none;stroke-width:0.5;stroke-linecap:square;stroke-linejoin:miter;stroke-miterlimit:4;stroke-dasharray:none;stroke-opacity:1"
             d="m 352.6296,682.82389 a 40,40 0 0 0 -1.8027,2.4239 40,40 0 0 0 -2.0937,3.4062 40,40 0 0 0 -1.7461,3.5977 40,40 0 0 0 -1.375,3.7539 40,40 0 0 0 -0.9961,3.873 40,40 0 0 0 -0.6035,3.9532 40,40 0 0 0 -0.2051,3.9921 l 80,0 a 40,40 0 0 0 -0.1133,-3.0058 40,40 0 0 0 -0.502,-3.9668 40,40 0 0 0 -0.8945,-3.8965 40,40 0 0 0 -1.2773,-3.7891 40,40 0 0 0 -1.6504,-3.6425 40,40 0 0 0 -2.0059,-3.4571 40,40 0 0 0 -2.3418,-3.2422 l -62.3926,0 z"
             id="path5748" />
          <path
             inkscape:connector-curvature="0"
             style="opacity:1;fill:#0a9491;fill-opacity:1;stroke:none;stroke-width:0.5;stroke-linecap:square;stroke-linejoin:miter;stroke-miterlimit:4;stroke-dasharray:none;stroke-opacity:1"
             d="m 322.3129,682.82389 a 40,40 0 0 1 2.3418,3.2422 40,40 0 0 1 2.0059,3.4571 40,40 0 0 1 1.6504,3.6425 40,40 0 0 1 1.2773,3.7891 40,40 0 0 1 0.8945,3.8965 40,40 0 0 1 0.502,3.9668 40,40 0 0 1 0.1133,3.0058 l 25,0 a 65,65 0 0 0 -0.3282,-6.4882 65,65 0 0 0 -0.9765,-6.4239 65,65 0 0 0 -1.6113,-6.2949 65,65 0 0 0 -2.1016,-5.793 l -28.7676,0 z"
             id="path5668" />
          <path
             inkscape:connector-curvature="0"
             style="opacity:1;fill:#0dc7c3;fill-opacity:1;stroke:none;stroke-width:0.5;stroke-linecap:square;stroke-linejoin:miter;stroke-miterlimit:4;stroke-dasharray:none;stroke-opacity:1"
             d="m 259.9203,682.82389 a 40,40 0 0 0 -1.8027,2.4239 40,40 0 0 0 -2.0937,3.4062 40,40 0 0 0 -1.7461,3.5977 40,40 0 0 0 -1.375,3.7539 40,40 0 0 0 -0.9961,3.873 40,40 0 0 0 -0.6035,3.9532 40,40 0 0 0 -0.2051,3.9921 l 80,0 a 40,40 0 0 0 -0.1133,-3.0058 40,40 0 0 0 -0.502,-3.9668 40,40 0 0 0 -0.8945,-3.8965 40,40 0 0 0 -1.2773,-3.7891 40,40 0 0 0 -1.6504,-3.6425 40,40 0 0 0 -2.0059,-3.4571 40,40 0 0 0 -2.3418,-3.2422 l -62.3926,0 z"
             id="path5670" />
          <path
             inkscape:connector-curvature="0"
             style="opacity:1;fill:#0aa09c;fill-opacity:1;stroke:none;stroke-width:0.5;stroke-linecap:square;stroke-linejoin:miter;stroke-miterlimit:4;stroke-dasharray:none;stroke-opacity:1"
             d="m 231.1645,682.82389 a 65,65 0 0 0 -2.2129,6.1094 65,65 0 0 0 -1.5898,6.2988 65,65 0 0 0 -0.9551,6.4278 65,65 0 0 0 -0.3086,6.164 l 25,0 a 40,40 0 0 1 0.2051,-3.9921 40,40 0 0 1 0.6035,-3.9532 40,40 0 0 1 0.9961,-3.873 40,40 0 0 1 1.375,-3.7539 40,40 0 0 1 1.7461,-3.5977 40,40 0 0 1 2.0937,-3.4062 40,40 0 0 1 1.8027,-2.4239 l -28.7558,0 z"
             id="path5672" />
          <path
             inkscape:connector-curvature="0"
             style="opacity:1;fill:#0dc7c3;fill-opacity:1;stroke:none;stroke-width:70;stroke-linecap:square;stroke-linejoin:miter;stroke-miterlimit:4;stroke-dasharray:none;stroke-opacity:1"
             d="m 348.59861,738.07477 a 12.5,12.5 0 0 0 0.1,-0.2051 12.5,12.5 0 0 0 0.4278,-1.1738 12.5,12.5 0 0 0 0.3105,-1.2109 12.5,12.5 0 0 0 0.1856,-1.2344 12.5,12.5 0 0 0 0.062,-1.2481 12.5,12.5 0 0 0 -0.031,-0.8847 12.5,12.5 0 0 0 -0.1503,-1.2403 12.5,12.5 0 0 0 -0.2735,-1.2187 12.5,12.5 0 0 0 -0.3945,-1.1856 12.5,12.5 0 0 0 -0.5098,-1.1406 12.5,12.5 0 0 0 -0.6211,-1.084 12.5,12.5 0 0 0 -0.7265,-1.0175 12.5,12.5 0 0 0 -0.8262,-0.9375 12.5,12.5 0 0 0 -0.9141,-0.8516 12.5,12.5 0 0 0 -0.9941,-0.7559 12.5,12.5 0 0 0 -1.0645,-0.6543 12.5,12.5 0 0 0 -1.125,-0.5429 12.5,12.5 0 0 0 -1.1738,-0.4278 12.5,12.5 0 0 0 -1.2109,-0.3105 12.5,12.5 0 0 0 -1.2364,-0.1856 12.5,12.5 0 0 0 -1.248,-0.062 12.5,12.5 0 0 0 -0.8828,0.031 12.5,12.5 0 0 0 -1.2402,0.1504 12.5,12.5 0 0 0 -1.2207,0.2735 12.5,12.5 0 0 0 -1.1856,0.3945 12.5,12.5 0 0 0 -1.1406,0.5098 12.5,12.5 0 0 0 -1.084,0.6211 12.5,12.5 0 0 0 -1.0156,0.7265 12.5,12.5 0 0 0 -0.9395,0.8262 12.5,12.5 0 0 0 -0.8515,0.9141 12.5,12.5 0 0 0 -0.7559,0.9941 12.5,12.5 0 0 0 -0.6523,1.0645 12.5,12.5 0 0 0 -0.543,1.1269 12.5,12.5 0 0 0 -0.4297,1.1719 12.5,12.5 0 0 0 -0.3086,1.2109 12.5,12.5 0 0 0 -0.1875,1.2363 12.5,12.5 0 0 0 -0.062,1.2481 12.5,12.5 0 0 0 0.031,0.8828 12.5,12.5 0 0 0 0.1504,1.2422 12.5,12.5 0 0 0 0.2754,1.2187 12.5,12.5 0 0 0 0.3926,1.1856 12.5,12.5 0 0 0 0.5117,1.1406 12.5,12.5 0 0 0 0.6211,1.084 12.5,12.5 0 0 0 0.7265,1.0156 12.5,12.5 0 0 0 0.8243,0.9395 12.5,12.5 0 0 0 0.914,0.8515 12.5,12.5 0 0 0 0.9961,0.7559 12.5,12.5 0 0 0 1.0645,0.6523 12.5,12.5 0 0 0 1.125,0.545 12.5,12.5 0 0 0 1.1738,0.4277 12.5,12.5 0 0 0 1.2109,0.3086 12.5,12.5 0 0 0 1.2344,0.1875 12.5,12.5 0 0 0 1.2481,0.062 12.5,12.5 0 0 0 0.8847,-0.031 12.5,12.5 0 0 0 1.2403,-0.1504 12.5,12.5 0 0 0 1.2187,-0.2734 12.5,12.5 0 0 0 1.1855,-0.3946 12.5,12.5 0 0 0 1.1407,-0.5097 12.5,12.5 0 0 0 1.084,-0.6231 12.5,12.5 0 0 0 1.0175,-0.7265 12.5,12.5 0 0 0 0.9375,-0.8243 12.5,12.5 0 0 0 0.8516,-0.914 12.5,12.5 0 0 0 0.5918,-0.7793 65,65 0 0 0 1.2617,-2.2012 z"
             id="path5674" />
          <path
             style="opacity:1;fill:url(#linearGradient5694);fill-opacity:1;stroke:none;stroke-width:70;stroke-linecap:square;stroke-linejoin:miter;stroke-miterlimit:4;stroke-dasharray:none;stroke-opacity:1"
             d="m 176.1924,735.28189 a 12.5,12.5 0 0 1 -0.062,1.248 12.5,12.5 0 0 1 -0.1875,1.2344 12.5,12.5 0 0 1 -0.3086,1.2109 12.5,12.5 0 0 1 -0.4297,1.1739 12.5,12.5 0 0 1 -0.543,1.125 12.5,12.5 0 0 1 -0.6523,1.0644 12.5,12.5 0 0 1 -0.7559,0.9961 12.5,12.5 0 0 1 -0.8515,0.9141 12.5,12.5 0 0 1 -0.9395,0.8242 12.5,12.5 0 0 1 -1.0156,0.7265 12.5,12.5 0 0 1 -1.084,0.6231 12.5,12.5 0 0 1 -1.1406,0.5097 12.5,12.5 0 0 1 -1.1856,0.3946 12.5,12.5 0 0 1 -1.2207,0.2734 12.5,12.5 0 0 1 -1.2402,0.1504 12.5,12.5 0 0 1 -0.8828,0.031 12.5,12.5 0 0 1 -1.2481,-0.062 12.5,12.5 0 0 1 -1.2363,-0.1875 12.5,12.5 0 0 1 -1.2109,-0.3086 12.5,12.5 0 0 1 -1.1739,-0.4277 12.5,12.5 0 0 1 -1.125,-0.5449 12.5,12.5 0 0 1 -1.0644,-0.6524 12.5,12.5 0 0 1 -0.9942,-0.7558 12.5,12.5 0 0 1 -0.914,-0.8516 12.5,12.5 0 0 1 -0.8262,-0.9395 12.5,12.5 0 0 1 -0.7266,-1.0156 12.5,12.5 0 0 1 -0.6211,-1.084 12.5,12.5 0 0 1 -0.5097,-1.1406 12.5,12.5 0 0 1 -0.3945,-1.1855 12.5,12.5 0 0 1 -0.2735,-1.2188 12.5,12.5 0 0 1 -0.1289,-1.0605 65,65 0 0 0 64.9473,63.9355 65,65 0 0 0 65,-65 65,65 0 0 0 -6.1875,-27.5 l -29.7949,0 a 40,40 0 0 1 10.9824,27.5 40,40 0 0 1 -40,40 40,40 0 0 1 -40,-40 z"
             id="path5686"
             inkscape:connector-curvature="0" />
          <path
             inkscape:connector-curvature="0"
             style="opacity:1;fill:#0dc7c3;fill-opacity:1;stroke:none;stroke-width:70;stroke-linecap:square;stroke-linejoin:miter;stroke-miterlimit:4;stroke-dasharray:none;stroke-opacity:1"
             d="m 226.0981,707.82389 a 65,65 0 0 0 65,65 65,65 0 0 0 56.3281,-32.7265 12.5,12.5 0 0 1 -0.5918,0.7793 12.5,12.5 0 0 1 -0.8516,0.914 12.5,12.5 0 0 1 -0.9375,0.8243 12.5,12.5 0 0 1 -1.0175,0.7265 12.5,12.5 0 0 1 -1.084,0.6231 12.5,12.5 0 0 1 -1.1406,0.5097 12.5,12.5 0 0 1 -1.1856,0.3946 12.5,12.5 0 0 1 -1.2187,0.2734 12.5,12.5 0 0 1 -1.2403,0.1504 12.5,12.5 0 0 1 -0.8847,0.031 12.5,12.5 0 0 1 -1.2481,-0.062 12.5,12.5 0 0 1 -1.2344,-0.1875 12.5,12.5 0 0 1 -1.2109,-0.3086 12.5,12.5 0 0 1 -1.1738,-0.4277 12.5,12.5 0 0 1 -1.125,-0.545 12.5,12.5 0 0 1 -1.0645,-0.6523 12.5,12.5 0 0 1 -0.9961,-0.7559 12.5,12.5 0 0 1 -0.914,-0.8515 12.5,12.5 0 0 1 -0.8243,-0.9395 12.5,12.5 0 0 1 -0.7265,-1.0156 12.5,12.5 0 0 1 -0.6211,-1.084 12.5,12.5 0 0 1 -0.5117,-1.1406 12.5,12.5 0 0 1 -0.3926,-1.1856 12.5,12.5 0 0 1 -0.2754,-1.2187 12.5,12.5 0 0 1 -0.1504,-1.2422 12.5,12.5 0 0 1 -0.031,-0.8828 12.5,12.5 0 0 1 0.062,-1.2481 12.5,12.5 0 0 1 0.1875,-1.2363 12.5,12.5 0 0 1 0.3086,-1.2109 12.5,12.5 0 0 1 0.4297,-1.1719 12.5,12.5 0 0 1 0.3184,-0.6582 c -0.012,-0.017 -0.02,-0.03 -0.031,-0.047 a 40,40 0 0 1 -34.9512,20.5723 40,40 0 0 1 -40,-40 l -25,0 z"
             id="path5676" />
          <path
             id="path5718"
             d="m 259.9203,682.82389 a 40,40 0 0 0 -1.8027,2.4239 40,40 0 0 0 -2.0937,3.4062 40,40 0 0 0 -1.7461,3.5977 40,40 0 0 0 -1.375,3.7539 40,40 0 0 0 -0.9961,3.873 40,40 0 0 0 -0.6035,3.9532 40,40 0 0 0 -0.2051,3.9921 l 80,0 a 40,40 0 0 0 -0.1133,-3.0058 40,40 0 0 0 -0.502,-3.9668 40,40 0 0 0 -0.8945,-3.8965 40,40 0 0 0 -1.2773,-3.7891 40,40 0 0 0 -1.6504,-3.6425 40,40 0 0 0 -2.0059,-3.4571 40,40 0 0 0 -2.3418,-3.2422 l -62.3926,0 z"
             style="opacity:1;fill:url(#linearGradient5726);fill-opacity:1;stroke:none;stroke-width:0.5;stroke-linecap:square;stroke-linejoin:miter;stroke-miterlimit:4;stroke-dasharray:none;stroke-opacity:1"
             inkscape:connector-curvature="0" />
          <path
             inkscape:connector-curvature="0"
             style="opacity:1;fill:#0dc7c3;fill-opacity:1;stroke:none;stroke-width:70;stroke-linecap:square;stroke-linejoin:miter;stroke-miterlimit:4;stroke-dasharray:none;stroke-opacity:1"
             d="m 291.0981,642.83505 a 65,65 0 0 0 -59.9336,40 l 28.7558,0 a 40,40 0 0 1 31.1778,-15 40,40 0 0 1 31.2148,15 l 28.7676,0 a 65,65 0 0 0 -59.9824,-40 z"
             id="path5678" />
          <path
             inkscape:connector-curvature="0"
             id="path5680"
             d="m 177.9834,682.78189 a 65,65 0 0 0 -3.666,2.7851 65,65 0 0 0 -4.7539,4.4297 65,65 0 0 0 -4.2872,4.8809 65,65 0 0 0 -3.7792,5.2851 65,65 0 0 0 -3.2325,5.6348 65,65 0 0 0 -0.8886,1.9844 l 29.8359,0 57.9981,0 29.7949,0 a 65,65 0 0 0 -1.7696,-3.6621 65,65 0 0 0 -3.3964,-5.5391 65,65 0 0 0 -3.9317,-5.1738 65,65 0 0 0 -4.4297,-4.7539 65,65 0 0 0 -4.8808,-4.2872 65,65 0 0 0 -2.2149,-1.5839 l -76.3984,0 z"
             style="opacity:1;fill:#ec2020;fill-opacity:1;stroke:none;stroke-width:0.5;stroke-linecap:square;stroke-linejoin:miter;stroke-miterlimit:4;stroke-dasharray:none;stroke-opacity:1" />
          <path
             id="path5730"
             d="m 291.0981,642.83505 a 65,65 0 0 0 -59.9336,40 l 28.7558,0 a 40,40 0 0 1 31.1778,-15 40,40 0 0 1 31.2148,15 l 28.7676,0 a 65,65 0 0 0 -59.9824,-40 z"
             style="opacity:1;fill:url(#linearGradient5738);fill-opacity:1;stroke:none;stroke-width:70;stroke-linecap:square;stroke-linejoin:miter;stroke-miterlimit:4;stroke-dasharray:none;stroke-opacity:1"
             inkscape:connector-curvature="0" />
          <path
             id="path5682"
             d="m 383.8074,642.82389 a 65,65 0 0 0 -59.9336,40 l 28.7558,0 a 40,40 0 0 1 31.1778,-15 40,40 0 0 1 31.2148,15 l 28.7676,0 a 65,65 0 0 0 -59.9824,-40 z"
             style="opacity:1;fill:#ec2020;fill-opacity:1;stroke:none;stroke-width:70;stroke-linecap:square;stroke-linejoin:miter;stroke-miterlimit:4;stroke-dasharray:none;stroke-opacity:1"
             inkscape:connector-curvature="0" />
          <path
             id="path5684"
             d="m 323.8738,682.82389 a 65,65 0 0 0 -2.2129,6.1094 65,65 0 0 0 -1.5898,6.2988 65,65 0 0 0 -0.9551,6.4278 65,65 0 0 0 -0.3086,6.164 l 25,0 a 40,40 0 0 1 0.2051,-3.9921 40,40 0 0 1 0.6035,-3.9532 40,40 0 0 1 0.9961,-3.873 40,40 0 0 1 1.375,-3.7539 40,40 0 0 1 1.7461,-3.5977 40,40 0 0 1 2.0937,-3.4062 40,40 0 0 1 1.8027,-2.4239 l -28.7558,0 z"
             style="opacity:1;fill:#ec2020;fill-opacity:1;stroke:none;stroke-width:0.5;stroke-linecap:square;stroke-linejoin:miter;stroke-miterlimit:4;stroke-dasharray:none;stroke-opacity:1"
             inkscape:connector-curvature="0" />
          <path
             id="path5708"
             d="m 226.0981,707.82389 a 65,65 0 0 0 65,65 65,65 0 0 0 56.3281,-32.7265 12.5,12.5 0 0 1 -0.5918,0.7793 12.5,12.5 0 0 1 -0.8516,0.914 12.5,12.5 0 0 1 -0.9375,0.8243 12.5,12.5 0 0 1 -1.0175,0.7265 12.5,12.5 0 0 1 -1.084,0.6231 12.5,12.5 0 0 1 -1.1406,0.5097 12.5,12.5 0 0 1 -1.1856,0.3946 12.5,12.5 0 0 1 -1.2187,0.2734 12.5,12.5 0 0 1 -1.2403,0.1504 12.5,12.5 0 0 1 -0.8847,0.031 12.5,12.5 0 0 1 -1.2481,-0.062 12.5,12.5 0 0 1 -1.2344,-0.1875 12.5,12.5 0 0 1 -1.2109,-0.3086 12.5,12.5 0 0 1 -1.1738,-0.4277 12.5,12.5 0 0 1 -1.125,-0.545 12.5,12.5 0 0 1 -1.0645,-0.6523 12.5,12.5 0 0 1 -0.9961,-0.7559 12.5,12.5 0 0 1 -0.914,-0.8515 12.5,12.5 0 0 1 -0.8243,-0.9395 12.5,12.5 0 0 1 -0.7265,-1.0156 12.5,12.5 0 0 1 -0.6211,-1.084 12.5,12.5 0 0 1 -0.5117,-1.1406 12.5,12.5 0 0 1 -0.3926,-1.1856 12.5,12.5 0 0 1 -0.2754,-1.2187 12.5,12.5 0 0 1 -0.1504,-1.2422 12.5,12.5 0 0 1 -0.031,-0.8828 12.5,12.5 0 0 1 0.062,-1.2481 12.5,12.5 0 0 1 0.1875,-1.2363 12.5,12.5 0 0 1 0.3086,-1.2109 12.5,12.5 0 0 1 0.4297,-1.1719 12.5,12.5 0 0 1 0.3184,-0.6582 c -0.012,-0.017 -0.02,-0.03 -0.031,-0.047 a 40,40 0 0 1 -34.9512,20.5723 40,40 0 0 1 -40,-40 l -25,0 z"
             style="opacity:1;fill:url(#linearGradient5716);fill-opacity:1;stroke:none;stroke-width:70;stroke-linecap:square;stroke-linejoin:miter;stroke-miterlimit:4;stroke-dasharray:none;stroke-opacity:1"
             inkscape:connector-curvature="0" />
        </g>
        <g
           id="g6336"
           transform="translate(-14.534514,0.71428871)"
           style="stroke:#ffffff">
          <path
             inkscape:connector-curvature="0"
             id="path6332"
             d="m 155.05842,682.64637 315.16759,0"
             style="fill:none;fill-rule:evenodd;stroke:#ffffff;stroke-width:1px;stroke-linecap:butt;stroke-linejoin:miter;stroke-opacity:1" />
          <path
             style="fill:none;fill-rule:evenodd;stroke:#ffffff;stroke-width:1px;stroke-linecap:butt;stroke-linejoin:miter;stroke-opacity:1"
             d="m 155.05842,707.60431 315.16759,0"
             id="path6334"
             inkscape:connector-curvature="0" />
        </g>
      </g>
      <text
         xml:space="preserve"
         style="font-style:normal;font-weight:normal;font-size:40px;line-height:125%;font-family:sans-serif;letter-spacing:0px;word-spacing:0px;fill:#000000;fill-opacity:1;stroke:none;stroke-width:1px;stroke-linecap:butt;stroke-linejoin:miter;stroke-opacity:1"
         x="403.46957"
         y="773.10565"
         id="text7090"
         sodipodi:linespacing="125%"><tspan
           sodipodi:role="line"
           id="tspan7092"
           x="403.46957"
           y="773.10565"
           style="font-style:normal;font-variant:normal;font-weight:normal;font-stretch:normal;font-size:27.5px;font-family:'Open Sans';-inkscape-font-specification:'Open Sans'">Jakarta EE</tspan></text>
    </g>
  </g>
</svg>
